# xmcd
#
# Track frame offsets:
#	150
#	10783
#	19230
#	29485
#	41873
#	54848
#	65445
#	77865
#	93080
#	106133
#	122548
#
# Disc length: 1797 seconds
#
# Revision: 1
# Processed by: cddbd v1.5.2PL0 Copyright (c) Steve Scherf et al.
# Submitted via: audiograbber 1.83.01
#
DISCID=8007030b
DTITLE=Al Dean and the All Stars - Mr. Cotton Eyed Joe plays for Urban Cowboys
DYEAR=1900
DGENRE=Country
TTITLE0=Cotton Eyed Joe
TTITLE1=Ten Pretty Girls
TTITLE2=Home Town Waltz
TTITLE3=El Rancho Grande
TTITLE4=Don't You Ever Get Tired of Hurting Me
TTITLE5=Silver Threads and Golden Needles
TTITLE6=Fraulein
TTITLE7=Last Date
TTITLE8=Release Me
TTITLE9=Together Again
TTITLE10=San Antonio Rose
EXTD=
EXTT0=
EXTT1=
EXTT2=
EXTT3=
EXTT4=
EXTT5=
EXTT6=
EXTT7=
EXTT8=
EXTT9=
EXTT10=
PLAYORDER=
